<?xml version="1.0" standalone="no"?><!DOCTYPE svg PUBLIC "-//W3C//DTD SVG 1.1//EN" "http://www.w3.org/Graphics/SVG/1.1/DTD/svg11.dtd"><svg t="1624853374252" class="icon" viewBox="0 0 1102 1024" version="1.1" xmlns="http://www.w3.org/2000/svg" p-id="8871" width="34.4375" height="32" xmlns:xlink="http://www.w3.org/1999/xlink"><defs><style type="text/css"></style></defs><path d="M170.653538 413.538462h472.615385a39.384615 39.384615 0 0 1 39.384615 39.384615V787.692308a39.384615 39.384615 0 0 1-39.384615 39.384615h-472.615385a39.384615 39.384615 0 0 1-39.384615-39.384615v-334.769231a39.384615 39.384615 0 0 1 39.384615-39.384615z" fill="#ffffff" p-id="8872"></path><path d="M271.084308 695.689846l232.36923 0.196923a29.538462 29.538462 0 0 0 0-59.076923l-232.36923-0.196923a29.538462 29.538462 0 1 0 0 59.076923z" fill="#ffffff" p-id="8873"></path><path d="M531.180308 926.326154h-421.415385c-23.709538 0-43.598769-20.873846-43.598769-47.458462V113.624615c0-26.545231 19.889231-47.458462 43.638154-47.458461h728.772923c23.748923 0 43.638154 20.873846 43.638154 47.458461V547.052308a33.083077 33.083077 0 1 0 66.166153 0V113.624615C948.381538 51.239385 899.584 0 838.577231 0H109.804308C48.758154 0 0 51.2 0 113.624615v765.243077C0 941.252923 48.797538 992.492308 109.804308 992.492308h421.415384a33.083077 33.083077 0 0 0 0-66.166154z" fill="#ffffff" p-id="8874"></path><path d="M826.564923 842.476308h202.752v90.387692h-202.752v-90.387692z m169.078154 60.612923v-31.192616h-135.404308v31.192616h135.404308z m-131.544615 33.673846c11.382154 12.051692 22.016 26.230154 31.586461 42.889846h67.702154c9.924923-14.178462 18.786462-29.065846 26.584615-44.307692l31.507693 10.988307c-6.695385 12.051692-14.178462 23.04-21.937231 33.319385h80.108308v31.901539h-305.545847v-31.901539h85.779693a176.206769 176.206769 0 0 0-27.648-31.192615l31.901538-11.697231z m-55.965539-195.308308c17.014154 12.051692 31.901538 24.457846 44.662154 36.509539 13.469538-13.469538 24.103385-27.293538 32.610461-42.180923h-82.944v-30.838154h121.225847v25.166769a200.270769 200.270769 0 0 1-35.091693 57.777231h93.577846a267.264 267.264 0 0 1-52.460307-77.981539l27.648-15.596307c5.671385 13.824 12.760615 26.939077 21.267692 38.990769 13.115077-10.279385 24.418462-21.622154 34.382769-33.673846l23.748923 20.91323c-11.342769 13.824-24.812308 25.875692-39.699692 36.509539 6.380308 7.443692 13.469538 14.887385 21.267692 21.976615 15.596308-12.051692 28.711385-25.166769 39.345231-39.34523l23.748923 20.91323c-11.342769 14.178462-24.103385 26.939077-38.990769 38.281846 15.950769 12.051692 33.673846 23.04 53.523692 32.964924l-22.331077 25.875692c-28.356923-15.950769-53.169231-33.673846-74.436923-52.814769v13.469538h-129.732923v-11.342769c-23.04 20.204308-51.396923 37.218462-85.070769 51.396923l-20.204308-26.584615a327.443692 327.443692 0 0 0 64.866462-34.38277 457.885538 457.885538 0 0 0-43.598769-34.382769l22.685538-21.622154zM715.618462 149.385846a38.596923 38.596923 0 0 1 0 57.737846l-319.172924 286.523077L269.115077 551.384615l64.315077-114.372923 319.133538-286.562461c16.068923-16.620308 45.764923-16.620308 63.094154-1.063385z" fill="#ffffff" p-id="8875"></path></svg>